<svg xmlns="http://www.w3.org/2000/svg" id="Layer_1" data-name="Layer 1" viewBox="0 0 207.12 64.1"><defs><style>.cls-1,.cls-2{fill:#008185}.cls-2{fill-rule:evenodd}.cls-3{fill:none;stroke:#9a7141;stroke-miterlimit:3.86;stroke-width:.89px}.cls-4{fill:#666b66}.cls-5{fill:#a40c34}.cls-6{fill:#9a7141}</style></defs><title>logo</title><path d="M47.91,31.32V29.93c0-1.07.08-1.14.9-1.2v-.23H46v.23c.9.06,1,.13,1,1.2v3.53c0,1.07-.08,1.14-.94,1.2v.23h2.76v-.23c-.86-.06-.94-.13-.94-1.2V31.72h3.63v1.74c0,1.07-.08,1.14-1,1.2v.23h2.82v-.23c-.86-.06-.94-.13-.94-1.2V29.93c0-1.07.08-1.14,1-1.2v-.23H50.62v.23c.84.06.92.13.92,1.2v1.39Z" class="cls-1"/><path d="M60.9,33.46c0,1.07-.08,1.14-1,1.2v.23h4.94c.08-.26.31-1.26.37-1.54l-.26,0a2.66,2.66,0,0,1-.5,1,2,2,0,0,1-1.32.28A2.51,2.51,0,0,1,62,34.44c-.2-.12-.26-.41-.26-1V31.74h1.06c.45,0,.68,0,.81.13s.17.3.22.67h.26V30.59h-.26c-.1.73-.14.78-1,.78H61.77V29.14c0-.28,0-.3.31-.3h.79c.64,0,1,.07,1.15.23a1.77,1.77,0,0,1,.38.9l.26,0c-.05-.55-.1-1.26-.11-1.43H60v.23c.84.06.92.13.92,1.2Z" class="cls-1"/><path d="M75.43,34.88H78v-.22c-.65,0-.78-.12-1.12-.94-.41-1-.87-2.24-1.36-3.49l-.74-1.86-.24.09-2.15,5.2c-.37.87-.45.93-1.13,1v.22h2.24v-.22l-.31,0c-.47,0-.56-.17-.37-.73.15-.41.42-1.18.52-1.43h2.12c.29.71.6,1.47.67,1.71s.06.41-.32.45l-.33,0Zm-1.09-5.2h0l.92,2.41H73.43Z" class="cls-2"/><path d="M86,29.93c0-1.07.08-1.14,1-1.2v-.23H84.16v.23c.88.06,1,.13,1,1.2v3.53c0,1.07-.08,1.14-1,1.2v.22h4.71c.08-.26.31-1.26.37-1.54l-.26,0a2.84,2.84,0,0,1-.5,1,1.87,1.87,0,0,1-1.24.28,2.48,2.48,0,0,1-1-.13c-.2-.1-.25-.37-.25-1Z" class="cls-1"/><path d="M97.68,28.84h.7c.65,0,1,.07,1.15.25a1.84,1.84,0,0,1,.37.9l.26,0c-.05-.57-.1-1.28-.12-1.7h-.15a.51.51,0,0,1-.49.24H95.13c-.28,0-.39,0-.54-.24h-.15c0,.5-.08,1.13-.12,1.72h.26a2.51,2.51,0,0,1,.37-.84c.16-.19.44-.31,1.37-.31h.49v4.63c0,1.07-.08,1.14-1.07,1.2v.23h3.05v-.23c-1-.06-1.11-.13-1.11-1.2Z" class="cls-1"/><path d="M108.44,31.32V29.93c0-1.07.08-1.14.9-1.2v-.23h-2.76v.23c.9.06,1,.13,1,1.2v3.53c0,1.07-.08,1.14-.94,1.2v.23h2.76v-.23c-.86-.06-.94-.13-.94-1.2V31.72h3.63v1.74c0,1.07-.08,1.14-1,1.2v.23h2.82v-.23c-.86-.06-.94-.13-.94-1.2V29.93c0-1.07.08-1.14,1-1.2v-.23h-2.76v.23c.84.06.92.13.92,1.2v1.39Z" class="cls-1"/><path d="M134.84,30.1c-.06-.51-.1-.94-.19-1.48a8.26,8.26,0,0,0-1.88-.26c-2.29,0-4,1.4-4,3.42,0,1.56,1.11,3.24,3.75,3.24a10,10,0,0,0,2-.27c.17-.37.4-1.16.53-1.58l-.26,0a2.25,2.25,0,0,1-2.23,1.56c-1.69,0-2.73-1.26-2.73-3.15a2.6,2.6,0,0,1,2.72-2.87,1.77,1.77,0,0,1,2,1.43Z" class="cls-1"/><path d="M142.42,33.46c0,1.07-.08,1.14-1,1.2v.23h4.94c.08-.26.31-1.26.37-1.54l-.26,0a2.65,2.65,0,0,1-.5,1,2,2,0,0,1-1.32.28,2.51,2.51,0,0,1-1.07-.12c-.2-.12-.26-.41-.26-1V31.74h1.05c.45,0,.68,0,.82.13s.17.3.22.67h.26V30.59h-.26c-.11.73-.14.78-1,.78H143.3V29.14c0-.28,0-.3.31-.3h.79c.64,0,1,.07,1.15.23a1.75,1.75,0,0,1,.38.9l.26,0c-.05-.55-.1-1.26-.11-1.43H141.5v.23c.84.06.92.13.92,1.2Z" class="cls-1"/><path d="M159.31,31.11a14.26,14.26,0,0,1,.08-1.86c.05-.34.32-.49.9-.51v-.22h-2.51v.22c.69,0,1,.17,1,.51a14.5,14.5,0,0,1,.08,1.86v2.34h0l-4.4-4.94h-1.53v.22a1.2,1.2,0,0,1,.92.33c.19.23.2.38.2,1.09v2.13a14.24,14.24,0,0,1-.08,1.86c-.05.34-.32.49-.9.51v.22h2.51v-.22c-.69,0-1-.17-1-.51a14.14,14.14,0,0,1-.08-1.86v-2.5h0L159,35h.27Z" class="cls-1"/><path d="M170,28.84h.7c.65,0,1,.07,1.15.25a1.83,1.83,0,0,1,.38.9l.26,0c-.05-.57-.1-1.28-.11-1.7h-.15a.51.51,0,0,1-.49.24h-4.29c-.28,0-.39,0-.54-.24h-.14c0,.5-.08,1.13-.13,1.72h.26a2.5,2.5,0,0,1,.37-.84c.16-.19.44-.31,1.37-.31h.49v4.63c0,1.07-.08,1.14-1.07,1.2v.23h3.05v-.23c-1-.06-1.11-.13-1.11-1.2Z" class="cls-1"/><path d="M179.84,33.46c0,1.07-.08,1.14-1,1.2v.23h4.94c.08-.26.31-1.26.37-1.54l-.26,0a2.65,2.65,0,0,1-.5,1,2,2,0,0,1-1.32.28,2.51,2.51,0,0,1-1.07-.12c-.2-.12-.26-.41-.26-1V31.74h1.06c.45,0,.68,0,.81.13s.17.3.22.67h.26V30.59h-.26c-.1.73-.13.78-1,.78h-1.06V29.14c0-.28,0-.3.31-.3h.79c.64,0,1,.07,1.15.23a1.76,1.76,0,0,1,.37.9l.26,0c-.05-.55-.1-1.26-.11-1.43h-4.58v.23c.84.06.92.13.92,1.2Z" class="cls-1"/><path d="M192.36,29.11c0-.2,0-.25.09-.26a2,2,0,0,1,.58,0,1.42,1.42,0,0,1,1.58,1.44,1.53,1.53,0,0,1-.61,1.29,1.62,1.62,0,0,1-1,.26h-.61Zm0,3h.56a.68.68,0,0,1,.66.35c.29.46.73,1.19,1.06,1.63a2,2,0,0,0,2,.91h.15l0-.19a1.35,1.35,0,0,1-.78-.49,9,9,0,0,1-.88-1.08c-.31-.43-.74-1.11-.93-1.4a1.85,1.85,0,0,0,1.38-1.72,1.4,1.4,0,0,0-.69-1.25,3.23,3.23,0,0,0-1.65-.33h-2.65v.22c.84.06.92.13.92,1.2v3.53c0,1.07-.08,1.14-1,1.2v.22h2.78v-.22c-.86-.06-.94-.13-.94-1.2Z" class="cls-2"/><path d="M202.93,33.2c.11.53.22,1.23.3,1.48a6,6,0,0,0,.58.2,3.51,3.51,0,0,0,1,.15,2.11,2.11,0,0,0,2.32-2c0-1.22-1.1-1.62-1.79-1.9S204,30.5,204,29.78a1.05,1.05,0,0,1,1.13-1.09c1,0,1.24.69,1.42,1.26l.26,0c-.08-.59-.15-1-.19-1.32-.11,0-.26-.07-.4-.11a3.2,3.2,0,0,0-.87-.13,1.91,1.91,0,0,0-2.15,1.8c0,1.18,1.41,1.64,1.76,1.79.67.3,1.35.65,1.35,1.48A1.2,1.2,0,0,1,205,34.71c-1.11,0-1.64-1.09-1.81-1.55Z" class="cls-1"/><path d="M62.63,4.92c-.16-1.32-.27-2.43-.49-3.83A21.43,21.43,0,0,0,57.28.43c-5.92,0-10.22,3.63-10.22,8.85,0,4,2.87,8.4,9.71,8.4A25.71,25.71,0,0,0,61.85,17c.43-1,1-3,1.38-4.08l-.68-.08c-1.33,2.66-2.73,4-5.76,4-4.38,0-7.06-3.25-7.06-8.14,0-4,2.16-7.43,7-7.43,2.65,0,4.38.79,5.19,3.7Z" class="cls-1"/><path d="M70.86,16.84c-2.35,0-3.84-2.46-3.84-5.68,0-2.66,1.38-4.41,3.19-4.41,2.46,0,3.76,2.61,3.76,5.43,0,3.42-1.43,4.67-3.11,4.67m-.3.76a5.82,5.82,0,0,0,5.87-6A5.62,5.62,0,0,0,70.53,6a6,6,0,0,0-6,6.11,5.71,5.71,0,0,0,6,5.5" class="cls-2"/><path d="M79.17,15c0,1.42-.13,1.55-2,1.7v.58H83v-.58c-1.62-.15-1.76-.28-1.76-1.7V8.6a5.23,5.23,0,0,1,3-1.19c1.87,0,2.44,1.17,2.44,2.64v5c0,1.42-.14,1.55-1.89,1.7v.58h5.73v-.58c-1.6-.15-1.73-.28-1.73-1.7V9.33c0-.23,0-.43-.05-.71a4.88,4.88,0,0,1,3-1.22c2,0,2.51,1.27,2.51,2.74V15c0,1.42-.14,1.55-1.92,1.7v.58h5.73v-.58c-1.57-.15-1.7-.28-1.7-1.7V9.36A3.14,3.14,0,0,0,93,6a4.8,4.8,0,0,0-2.38.71,21.9,21.9,0,0,0-2,1.27,3.2,3.2,0,0,0-3.06-2,4.61,4.61,0,0,0-2.43.74c-.76.43-1.33.79-1.84,1.12V5.94a34.08,34.08,0,0,1-3.95,1v.46c1.78.2,1.84.23,1.84,1.75Z" class="cls-1"/><path d="M101.46,15c0,1.42-.14,1.55-2,1.7v.58h5.87v-.58c-1.62-.15-1.76-.28-1.76-1.7V8.6a5.23,5.23,0,0,1,3-1.19c1.87,0,2.43,1.17,2.43,2.64v5c0,1.42-.13,1.55-1.89,1.7v.58h5.73v-.58c-1.6-.15-1.73-.28-1.73-1.7V9.33c0-.23,0-.43-.05-.71a4.88,4.88,0,0,1,3-1.22c2,0,2.52,1.27,2.52,2.74V15c0,1.42-.14,1.55-1.92,1.7v.58h5.73v-.58c-1.57-.15-1.7-.28-1.7-1.7V9.36A3.14,3.14,0,0,0,115.31,6a4.8,4.8,0,0,0-2.38.71,21.71,21.71,0,0,0-2,1.27,3.2,3.2,0,0,0-3.06-2,4.62,4.62,0,0,0-2.43.74c-.76.43-1.33.79-1.84,1.12V5.94a34.07,34.07,0,0,1-3.95,1v.46c1.79.2,1.84.23,1.84,1.75Z" class="cls-1"/><path d="M130.94,14.86a5,5,0,0,1-3.08,1.29c-1.22,0-2.38-.56-2.38-2.92V6.11c-1,.15-3,.41-3.81.46V7.1l.84.13c.62.08.87.28.87,1.22v5.68c0,2.54,1.46,3.47,3.38,3.47a4.33,4.33,0,0,0,2.14-.61,18.76,18.76,0,0,0,2.06-1.35v1.8l.16.15a27.7,27.7,0,0,1,3.92-.89v-.56l-1.19-.05c-.57,0-.78-.1-.78-1.12V6.11c-1,.15-3,.41-4.25.46V7.1l1.3.15c.57.05.84.25.84,1.19Z" class="cls-1"/><path d="M140.29,5.94a34,34,0,0,1-3.95,1v.46c1.79.2,1.84.23,1.84,1.75V15c0,1.42-.14,1.55-2,1.7v.58H142v-.58c-1.6-.15-1.73-.28-1.73-1.7V8.6a4.93,4.93,0,0,1,2.95-1.19c2,0,2.52,1.27,2.52,2.74V15c0,1.42-.14,1.55-1.92,1.7v.58h5.73v-.58c-1.57-.15-1.7-.28-1.7-1.7V9.36A3.15,3.15,0,0,0,144.43,6a4.54,4.54,0,0,0-2.33.74c-.7.41-1.3.76-1.81,1.12Z" class="cls-1"/><path d="M155.06,5.94a33.91,33.91,0,0,1-3.95,1v.46c1.79.2,1.84.23,1.84,1.75V15c0,1.42-.14,1.55-1.92,1.7v.58h6v-.58c-1.81-.15-1.95-.28-1.95-1.7ZM154,0a1.4,1.4,0,0,0-1.41,1.4A1.4,1.4,0,0,0,154,2.76,1.38,1.38,0,1,0,154,0" class="cls-2"/><path d="M174.09,4.92c-.16-1.32-.27-2.43-.49-3.83a21.45,21.45,0,0,0-4.87-.66c-5.92,0-10.22,3.63-10.22,8.85,0,4,2.87,8.4,9.71,8.4A25.69,25.69,0,0,0,173.3,17c.43-1,1-3,1.38-4.08l-.68-.08c-1.32,2.66-2.73,4-5.76,4-4.38,0-7.06-3.25-7.06-8.14,0-4,2.16-7.43,7-7.43,2.65,0,4.38.79,5.19,3.7Z" class="cls-1"/><path d="M186.69,16.36l-.24-.56a3.23,3.23,0,0,1-1.16.33c-.41,0-.76-.43-.76-1.37V9.05a2.74,2.74,0,0,0-1-2.46A4,4,0,0,0,181.36,6a10.89,10.89,0,0,0-4.17,1.75c-.59.41-.92.76-.92,1.09s.73.86,1.16.86a.62.62,0,0,0,.62-.48c.3-1.06.87-2.13,2.19-2.13s2.22.84,2.22,2.41v.86a33.7,33.7,0,0,1-4.36,1.77,2.67,2.67,0,0,0-2.05,2.56,3.12,3.12,0,0,0,3.25,2.92c.57,0,2-1,3.17-1.65A2,2,0,0,0,184,17.6Zm-4.22-1.14a4.88,4.88,0,0,1-2.35,1,1.84,1.84,0,0,1-1.79-2c0-.91.46-1.42,1.41-1.9.51-.25,2.14-.94,2.73-1.17Z" class="cls-2"/><path d="M191.71,9.66c.7-1.32,1.41-1.8,2.05-1.8a1.75,1.75,0,0,1,1.16.53.68.68,0,0,0,.68,0,1.42,1.42,0,0,0,.87-1.24A1.46,1.46,0,0,0,195,6c-1.3,0-2.62,1.57-3.25,2.56h-.05V5.94a31.5,31.5,0,0,1-4,1v.46c1.79.2,1.84.23,1.84,1.75V15c0,1.42-.14,1.55-1.87,1.7v.58H194v-.58c-2.11-.15-2.24-.28-2.24-1.7Z" class="cls-1"/><path d="M206.66,14.76A4.13,4.13,0,0,1,203.88,16c-1.95,0-4.49-1.32-4.41-5.1,3.35-.1,6.71-.36,7.08-.43s.57-.15.57-.94A3.9,3.9,0,0,0,203.26,6a6,6,0,0,0-5.79,6.26A5.19,5.19,0,0,0,203,17.6,5.75,5.75,0,0,0,207,15.12Zm-7-4.79a3.3,3.3,0,0,1,2.92-3.12,2.29,2.29,0,0,1,2.27,2.23c0,.69-.11.81-.49.81Z" class="cls-2"/><line x1="42.97" x2="207.12" y1="22.66" y2="22.66" class="cls-3"/><path d="M29.73,63.53v-.75a2.76,2.76,0,0,1-2.27.85,2.79,2.79,0,0,1-2.22-.72,2.26,2.26,0,0,1-.59-1.6c0-1.37,1-2.27,2.72-2.27h2.37v-.75c0-1.15-.58-1.73-2-1.73a2.07,2.07,0,0,0-2,.9l-.78-.72a3.05,3.05,0,0,1,2.78-1.17c2.11,0,3.15.91,3.15,2.63v5.34Zm0-3.63H27.52c-1.18,0-1.76.48-1.76,1.39s.56,1.34,1.81,1.34a2.3,2.3,0,0,0,1.76-.53,1.81,1.81,0,0,0,.4-1.36Z" class="cls-4"/><path d="M153.32,63.63c-2,0-3.49-1.34-3.49-4s1.5-4,3.49-4a3.12,3.12,0,0,1,2.59,1.17l-.78.74a2.15,2.15,0,0,0-1.81-.88,2.13,2.13,0,0,0-1.83.9A3.38,3.38,0,0,0,151,59.6a3.37,3.37,0,0,0,.51,2.11,2.13,2.13,0,0,0,1.83.9,2.18,2.18,0,0,0,1.81-.9l.78.75a3.11,3.11,0,0,1-2.59,1.17" class="cls-4"/><path d="M158.31,59.9c0,1.73.82,2.72,2.32,2.72a2.58,2.58,0,0,0,2.06-.9l.78.69a3.61,3.61,0,0,1-2.88,1.21c-2.08,0-3.44-1.25-3.44-4,0-2.54,1.23-4,3.23-4s3.23,1.47,3.23,3.81v.53Zm3.92-2.18a2,2,0,0,0-3.68,0,3.35,3.35,0,0,0-.24,1.31h4.16a3.3,3.3,0,0,0-.24-1.31" class="cls-4"/><path d="M170.67,63.53V58.69a1.95,1.95,0,1,0-3.89,0v4.85h-1.15V55.66h1.15v.86a2.84,2.84,0,0,1,2.21-1,2.76,2.76,0,0,1,2,.74,2.92,2.92,0,0,1,.82,2.19v5Z" class="cls-4"/><path d="M176.3,63.53a1.93,1.93,0,0,1-2-2.11V56.59h-1v-.88h1V53.25h1.15v2.46h1.68v.88h-1.68v4.8c0,.72.34,1.15,1.07,1.15h.61v1Z" class="cls-4"/><path d="M179.53,59.9c0,1.73.81,2.72,2.32,2.72a2.58,2.58,0,0,0,2.06-.9l.78.69a3.6,3.6,0,0,1-2.88,1.21c-2.08,0-3.44-1.25-3.44-4,0-2.54,1.23-4,3.23-4s3.23,1.47,3.23,3.81v.53Zm3.92-2.18a2,2,0,0,0-3.68,0,3.3,3.3,0,0,0-.24,1.31h4.16a3.28,3.28,0,0,0-.24-1.31" class="cls-4"/><path d="M191.24,57.17a1.64,1.64,0,0,0-1.36-.58A1.92,1.92,0,0,0,188,58.71v4.83h-1.15V55.66H188v1a2.65,2.65,0,0,1,2.21-1.06,2.43,2.43,0,0,1,1.89.74Z" class="cls-4"/><path d="M39.4,63.63c-2,0-3.49-1.34-3.49-4s1.5-4,3.49-4A3.1,3.1,0,0,1,42,56.74l-.78.74a2.16,2.16,0,0,0-1.81-.88,2.13,2.13,0,0,0-1.82.89,3.39,3.39,0,0,0-.51,2.11,3.38,3.38,0,0,0,.51,2.11,2.12,2.12,0,0,0,1.82.89,2.18,2.18,0,0,0,1.81-.89l.78.75a3.11,3.11,0,0,1-2.59,1.17" class="cls-4"/><path d="M48.53,63.53v-.75a2.76,2.76,0,0,1-2.27.85A2.81,2.81,0,0,1,44,62.91a2.27,2.27,0,0,1-.59-1.6c0-1.37,1-2.27,2.72-2.27h2.37v-.75c0-1.16-.58-1.73-2-1.73a2.07,2.07,0,0,0-2,.9l-.78-.72a3.05,3.05,0,0,1,2.78-1.17c2.11,0,3.15.91,3.15,2.63v5.34Zm0-3.63H46.32c-1.19,0-1.76.48-1.76,1.39s.56,1.34,1.81,1.34a2.29,2.29,0,0,0,1.76-.53,1.81,1.81,0,0,0,.4-1.36Z" class="cls-4"/><path d="M53.65,63.53a1.88,1.88,0,0,1-2-2.1V52.15H52.8v9.24c0,.77.25,1.15,1.06,1.15h.62v1Z" class="cls-4"/><path d="M55.92,52.13h1.29v1.3H55.92ZM56,55.66h1.15v7.87H56Z" class="cls-4"/><path d="M61.1,56.59v6.94H59.94V56.59h-1v-.88h1V54.22a1.92,1.92,0,0,1,2-2.11h.83v1h-.62c-.74,0-1.06.43-1.06,1.15v1.46h1.68v.88Z" class="cls-4"/><path d="M69.22,62.73a3.28,3.28,0,0,1-4.51,0,4.21,4.21,0,0,1-1-3.13,4.22,4.22,0,0,1,1-3.13,3.28,3.28,0,0,1,4.51,0,4.21,4.21,0,0,1,1,3.13,4.2,4.2,0,0,1-1,3.13m-.81-5.56A2,2,0,0,0,67,56.59a2,2,0,0,0-1.42.58,3.43,3.43,0,0,0-.64,2.43A3.43,3.43,0,0,0,65.54,62,2,2,0,0,0,67,62.6,2,2,0,0,0,68.4,62,3.43,3.43,0,0,0,69,59.6a3.43,3.43,0,0,0-.62-2.43" class="cls-4"/><path d="M76.4,57.17A1.64,1.64,0,0,0,75,56.59a1.93,1.93,0,0,0-1.89,2.11v4.83H72V55.66h1.15v1a2.67,2.67,0,0,1,2.21-1.06,2.43,2.43,0,0,1,1.89.74Z" class="cls-4"/><path d="M83.57,63.53V58.68a1.83,1.83,0,0,0-1.94-2.09,1.85,1.85,0,0,0-2,2.09v4.85H78.53V55.66h1.15v.86a2.84,2.84,0,0,1,2.21-1,2.76,2.76,0,0,1,2,.74,2.91,2.91,0,0,1,.82,2.19v5Z" class="cls-4"/><path d="M86.75,52.13H88v1.3H86.75Zm.06,3.54H88v7.87H86.81Z" class="cls-4"/><path d="M94.93,63.53v-.75a3.63,3.63,0,0,1-4.5.13,2.27,2.27,0,0,1-.59-1.6c0-1.37,1-2.27,2.72-2.27h2.37v-.75c0-1.16-.58-1.73-2-1.73a2.08,2.08,0,0,0-2,.9l-.78-.72a3,3,0,0,1,2.78-1.17c2.11,0,3.15.91,3.15,2.63v5.34Zm0-3.63H92.72c-1.19,0-1.76.48-1.76,1.39s.56,1.34,1.81,1.34a2.3,2.3,0,0,0,1.76-.53,1.84,1.84,0,0,0,.4-1.36Z" class="cls-4"/><path d="M109.77,61.69c-2.18,2.51-4.21,2.88-4.78,1.28a4.64,4.64,0,0,1-.21-.84c0-.29-.08-.52-.09-.7-.08-.67-.13-1.34-.14-2s0-1.33-.06-2v-.15c0-.06,0-.15,0-.27s-.09-.17-.19-.17-.31.13-.51.39a8,8,0,0,0-.64,1c-.22.4-.45.85-.68,1.34s-.46,1-.65,1.42-.37.87-.51,1.23-.25.63-.3.79-.08.23-.13.35-.11.24-.18.35a1,1,0,0,1-.25.28.6.6,0,0,1-.35.11.5.5,0,0,1-.34-.12,1.39,1.39,0,0,1-.23-.29,1.3,1.3,0,0,1-.13-.36,3.3,3.3,0,0,1-.06-.34,6.5,6.5,0,0,1,0-1c0-.31,0-.63,0-1,0-.59,0-1.17,0-1.75s0-1.17,0-1.76,0-1.42,0-2.26,0-1.68.06-2.54.12-1.69.24-2.48a9,9,0,0,1,.5-2.06,3.69,3.69,0,0,1,.21-.44,2.38,2.38,0,0,1,.3-.42,1.28,1.28,0,0,1,.4-.31,1,1,0,0,1,.49-.12.79.79,0,0,1,.53.18,1.54,1.54,0,0,1,.36.46,2.29,2.29,0,0,1,.21.57c.05.2.08.38.11.53a12.94,12.94,0,0,1-.13,4,22.62,22.62,0,0,1-1.08,3.79c-.11.3-.23.59-.36.87l-.36.85a2.62,2.62,0,0,0-.08.53c0,.28,0,.58,0,.91s0,.66,0,1,0,.51,0,.64c.08-.24.2-.55.35-.91s.33-.75.52-1.17.42-.82.66-1.23a10,10,0,0,1,.75-1.11,3.82,3.82,0,0,1,.83-.81,1.51,1.51,0,0,1,.86-.31.86.86,0,0,1,.54.17,1.41,1.41,0,0,1,.38.42,2.25,2.25,0,0,1,.23.53,3.37,3.37,0,0,1,.11.55,15.25,15.25,0,0,1,.11,2.32,15.91,15.91,0,0,0,.11,2.33c0,.08,0,.18,0,.28a1.05,1.05,0,0,0,.09.27c.56,1.11,2-.23,3.6-1.59.4-.33.92-.26.08.71M101.1,48.42a8,8,0,0,0-.34,1.43c-.1.58-.18,1.22-.23,1.92s-.1,1.37-.13,2,0,1.23,0,1.74,0,.88,0,1.08q.32-.76.65-1.76a21.94,21.94,0,0,0,.9-4.21,8.5,8.5,0,0,0,0-1.91s0-.11,0-.21a2.07,2.07,0,0,0-.06-.3c0-.1-.06-.18-.1-.26a.16.16,0,0,0-.14-.11c-.2,0-.36.18-.5.56" class="cls-5"/><path d="M109.8,60.89c.21-.21,1.49-1.76,1.65-2a4.3,4.3,0,0,0,.41-.79,1.47,1.47,0,0,0,.11-.77.83.83,0,0,0-.09-.29.29.29,0,0,0-.27-.14c-.19,0-.35.13-.51.4a5,5,0,0,0-.4.93,9.59,9.59,0,0,0-.28,1.06,7.82,7.82,0,0,0-.07,2.27,1.82,1.82,0,0,0,.4,1,1.22,1.22,0,0,0,1,.36,2.5,2.5,0,0,0,1.09-.23,3.61,3.61,0,0,0,.89-.59,4.74,4.74,0,0,0,.72-.82,7.35,7.35,0,0,0,.53-.93,2.36,2.36,0,0,1,.19-.31.34.34,0,0,1,.31-.17.35.35,0,0,1,.18.05.18.18,0,0,1,.1.15.73.73,0,0,1,0,.3,1.17,1.17,0,0,1-.1.26,5.64,5.64,0,0,1-.71,1.2,5.55,5.55,0,0,1-1,1,5,5,0,0,1-1.23.69,4.09,4.09,0,0,1-1.44.25,2.11,2.11,0,0,1-1-.21,2.34,2.34,0,0,1-.7-.55,2.66,2.66,0,0,1-.46-.8,4.47,4.47,0,0,1-.23-1,5.66,5.66,0,0,1,.06-1.52A7,7,0,0,1,109.4,58a4.41,4.41,0,0,1,.9-1.4,1.73,1.73,0,0,1,1.29-.57,1.09,1.09,0,0,1,.81.31,1.35,1.35,0,0,1,.36.8,2.14,2.14,0,0,1-.16,1,5.15,5.15,0,0,1-.59,1.09c-.25.35-1.71,2.08-2,2.36" class="cls-5"/><path d="M123.44,60.73l-.2.37c-.14.24-.32.51-.53.82a6.88,6.88,0,0,1-.7.87,4,4,0,0,1-.84.69,1.76,1.76,0,0,1-.93.28,1,1,0,0,1-.78-.32,2.68,2.68,0,0,1-.52-.78,4.76,4.76,0,0,1-.3-.94,8.07,8.07,0,0,1-.12-.82l-.39.69a6.42,6.42,0,0,1-.54.81,4.17,4.17,0,0,1-.65.67,1.13,1.13,0,0,1-.72.28.85.85,0,0,1-.58-.21,1.68,1.68,0,0,1-.41-.49A2.69,2.69,0,0,1,115,62a4.13,4.13,0,0,1-.12-.59,4.48,4.48,0,0,1,.15-1.65,6.92,6.92,0,0,1,.72-1.75,5,5,0,0,1,1.17-1.38,2.31,2.31,0,0,1,1.49-.56.68.68,0,0,1,.43.18.57.57,0,0,1,.25.39.13.13,0,0,1,0,.14.51.51,0,0,1-.12.08c-.31.2-.6.4-.87.62a5.39,5.39,0,0,0-1.71,2.41,4.29,4.29,0,0,0-.19,2,1.4,1.4,0,0,0,.07.28.23.23,0,0,0,.23.17.62.62,0,0,0,.43-.25,3.52,3.52,0,0,0,.46-.63,7.22,7.22,0,0,0,.44-.86c.14-.31.28-.62.4-.92s.23-.57.32-.82l.19-.56a1.49,1.49,0,0,1,.19-.38.41.41,0,0,1,.37-.17.84.84,0,0,1,.3.05.27.27,0,0,1,.17.24,1.73,1.73,0,0,1-.07.54c-.06.22-.1.4-.13.54a5.3,5.3,0,0,0-.09,1,7.84,7.84,0,0,0,.06,1c0,.1,0,.25.06.44a4.37,4.37,0,0,0,.14.6,2,2,0,0,0,.24.54.43.43,0,0,0,.37.23,1.15,1.15,0,0,0,.7-.29,5.4,5.4,0,0,0,.71-.69,8.37,8.37,0,0,0,.62-.82c.18-.29.33-.52.41-.69l.17-.3a.33.33,0,0,1,.3-.16c.19,0,.31.12.33.35a.66.66,0,0,1-.11.39" class="cls-5"/><path d="M124.61,63.73a3.41,3.41,0,0,1-.72-.86,5.77,5.77,0,0,1-.56-1.18,13.5,13.5,0,0,1-.38-1.32c-.1-.44-.19-.85-.25-1.23s-.11-.69-.14-.92a22.74,22.74,0,0,1-.16-3.84,14.33,14.33,0,0,1,.64-3.69c.07-.22.18-.49.31-.8a5.88,5.88,0,0,1,.49-.9,3.45,3.45,0,0,1,.65-.73,1.2,1.2,0,0,1,.77-.29,1,1,0,0,1,.57.16,1.35,1.35,0,0,1,.38.41,2.46,2.46,0,0,1,.25.55,4,4,0,0,1,.12.56,9.16,9.16,0,0,1,0,1.89,16.31,16.31,0,0,1-.29,2c-.14.68-.3,1.33-.5,2a15.11,15.11,0,0,1-.62,1.72c-.11.25-.23.48-.35.71s-.25.46-.37.71l-.14.26a.94.94,0,0,0-.1.28,1.21,1.21,0,0,0,0,.4c0,.16,0,.3,0,.41s.06.44.13.77a5,5,0,0,0,.28,1,3.65,3.65,0,0,0,.45.84.79.79,0,0,0,.66.35,1.22,1.22,0,0,0,.69-.25,3.91,3.91,0,0,0,.67-.61,6.79,6.79,0,0,0,.58-.75c.17-.26.31-.48.41-.65a3.27,3.27,0,0,0,.2-.38,3.4,3.4,0,0,1,.2-.38.72.72,0,0,1,.13-.19.3.3,0,0,1,.22-.08.23.23,0,0,1,.21.1.56.56,0,0,1,.09.23.66.66,0,0,1-.05.35l-.15.31c-.14.3-.34.64-.56,1a7.11,7.11,0,0,1-.8,1.12,5.12,5.12,0,0,1-1,.88,1.9,1.9,0,0,1-1.1.36,1.4,1.4,0,0,1-.92-.33m.3-14.56a3.2,3.2,0,0,0-.36.75,7,7,0,0,0-.23.87l-.13.67q-.23,1.28-.38,2.73a12.41,12.41,0,0,0,0,2.78c0,.1,0,.19,0,.28a1.75,1.75,0,0,0,0,.26c.23-.51.48-1.1.73-1.77a19.19,19.19,0,0,0,.67-2.09,17.55,17.55,0,0,0,.43-2.16,7.82,7.82,0,0,0,0-2s0-.09,0-.16a1.19,1.19,0,0,0-.06-.25.87.87,0,0,0-.11-.19.24.24,0,0,0-.18-.09.63.63,0,0,0-.52.32" class="cls-5"/><path d="M131.19,56.28a17.21,17.21,0,0,1-.7,1.62,2.5,2.5,0,0,1-.19.38l-.22.36-.13.2a.54.54,0,0,0-.1.19.37.37,0,0,0,0,.2c0,.09,0,.16,0,.2s.07.47.15.86a10.25,10.25,0,0,0,.31,1.17,4.37,4.37,0,0,0,.48,1,.79.79,0,0,0,.65.44,1.36,1.36,0,0,0,.84-.32,4.81,4.81,0,0,0,.78-.77,7.3,7.3,0,0,0,.65-.93c.19-.33.34-.6.44-.83a1.4,1.4,0,0,1,.17-.28.33.33,0,0,1,.26-.15.26.26,0,0,1,.19.08.32.32,0,0,1,.1.2.81.81,0,0,1,0,.39,4,4,0,0,1-.16.37,10,10,0,0,1-.56,1,7.63,7.63,0,0,1-.81,1.1,5.38,5.38,0,0,1-1,.88,1.93,1.93,0,0,1-1.09.36,1.44,1.44,0,0,1-.88-.3,3,3,0,0,1-.71-.77,6.21,6.21,0,0,1-.54-1.07,9.36,9.36,0,0,1-.4-1.18c-.11-.39-.2-.77-.27-1.12s-.12-.65-.15-.88c-.08-.6-.12-1.21-.16-1.82a13,13,0,0,1,0-1.8,1.28,1.28,0,0,1-.38.06.45.45,0,0,1-.5-.44.41.41,0,0,1,.26-.49,2.32,2.32,0,0,1,.61-.13c.05-.34.14-.78.26-1.34a10.57,10.57,0,0,1,.48-1.67,5.55,5.55,0,0,1,.76-1.42,1.37,1.37,0,0,1,1.1-.59.69.69,0,0,1,.49.19,1.43,1.43,0,0,1,.3.44,2.54,2.54,0,0,1,.17.55c0,.19.06.35.08.49a10,10,0,0,1,.07,1.46,9.76,9.76,0,0,1-.12,1.44l.61-.09a3.51,3.51,0,0,1,.62-.05.25.25,0,0,1,.29.24.28.28,0,0,1,0,.21,1.21,1.21,0,0,1-.16.14l-.27.1-.43.13-.45.12-.33.08a7.88,7.88,0,0,1-.43,1.71m-1.73.19c0,.5.05,1,.08,1.49a6.52,6.52,0,0,0,.37-.67c.13-.27.26-.56.38-.86s.21-.6.3-.89a5.52,5.52,0,0,0,.19-.77,4.82,4.82,0,0,1-.66.1,3.15,3.15,0,0,0-.63.12,8.33,8.33,0,0,0,0,1.48m.82-5.91a5.87,5.87,0,0,0-.43,1.18,12.66,12.66,0,0,0-.27,1.33,7.6,7.6,0,0,0-.1.93c.25,0,.49-.07.75-.08a4.14,4.14,0,0,0,.74-.12,11,11,0,0,0,.18-1.57,10.1,10.1,0,0,0,0-1.61,1.19,1.19,0,0,1,0-.13.74.74,0,0,0,0-.18l-.08-.17a.14.14,0,0,0-.12-.07c-.22,0-.4.17-.57.51" class="cls-5"/><path d="M138.8,57.23a7.19,7.19,0,0,0-.64,1c-.22.4-.45.85-.68,1.34s-.46,1-.66,1.42l-.51,1.23c-.15.37-.24.63-.3.79s-.08.23-.13.35a2.15,2.15,0,0,1-.18.35.85.85,0,0,1-.25.28.58.58,0,0,1-.36.11.49.49,0,0,1-.34-.12,1.14,1.14,0,0,1-.23-.29,1.33,1.33,0,0,1-.14-.36c0-.13,0-.24-.06-.34a5.77,5.77,0,0,1,0-1c0-.31,0-.63,0-1V59.33q0-.87,0-1.76c0-.67,0-1.42,0-2.26s0-1.68.07-2.54.12-1.69.23-2.48a9.58,9.58,0,0,1,.51-2.06,2.31,2.31,0,0,1,.21-.44,3,3,0,0,1,.3-.42A1.29,1.29,0,0,1,136,47a1,1,0,0,1,.48-.12.78.78,0,0,1,.53.18,1.47,1.47,0,0,1,.36.46,2.27,2.27,0,0,1,.22.57,3.9,3.9,0,0,1,.1.53,12.86,12.86,0,0,1-.12,4,22.48,22.48,0,0,1-1.08,3.79c-.12.3-.24.59-.36.87s-.25.57-.36.85a2.66,2.66,0,0,0-.07.53c0,.28,0,.58-.06.91s0,.66,0,1,0,.51,0,.64c.08-.24.19-.55.35-.91s.32-.75.52-1.17.41-.82.65-1.23a9.69,9.69,0,0,1,.75-1.11,4,4,0,0,1,.83-.81,1.48,1.48,0,0,1,.86-.31.91.91,0,0,1,.54.17,1.54,1.54,0,0,1,.37.42,2.2,2.2,0,0,1,.23.53,4.08,4.08,0,0,1,.12.55,15.25,15.25,0,0,1,.11,2.32A15.24,15.24,0,0,0,141,62c0,.08,0,.18,0,.28a.92.92,0,0,0,.08.27.58.58,0,0,0,.17.2.5.5,0,0,0,.29.08,1.27,1.27,0,0,0,.79-.31,5.27,5.27,0,0,0,.75-.74,10.79,10.79,0,0,0,.65-.88c.19-.31.34-.57.44-.76l.16-.29a.3.3,0,0,1,.26-.17.26.26,0,0,1,.24.11.61.61,0,0,1,.09.26.31.31,0,0,1,0,.16l-.06.14a8,8,0,0,1-.6,1.17,7.14,7.14,0,0,1-.89,1.18,5,5,0,0,1-1.12.91,2.45,2.45,0,0,1-1.26.36.75.75,0,0,1-.62-.3,2.46,2.46,0,0,1-.37-.7,4.26,4.26,0,0,1-.2-.84c0-.29-.07-.52-.1-.7a18.89,18.89,0,0,1-.14-2c0-.67,0-1.33,0-2l0-.15a2.71,2.71,0,0,0-.05-.27c0-.12-.09-.17-.18-.17s-.31.13-.51.39m-2.63-8.81a8.09,8.09,0,0,0-.34,1.43c-.1.58-.17,1.22-.23,1.92s-.1,1.37-.12,2,0,1.23,0,1.74,0,.88,0,1.08a18.21,18.21,0,0,0,.66-1.76c.22-.67.4-1.36.55-2.08a19.76,19.76,0,0,0,.34-2.13,8.26,8.26,0,0,0,0-1.91s0-.11,0-.21a1.45,1.45,0,0,0-.07-.3,1.51,1.51,0,0,0-.1-.26.15.15,0,0,0-.14-.11c-.2,0-.36.18-.5.56" class="cls-5"/><polygon points="146.38 52.11 144.17 52.11 144.17 49.91 143.02 49.91 143.02 52.11 140.81 52.11 140.81 53.27 143.02 53.27 143.02 55.47 144.17 55.47 144.17 53.27 146.38 53.27 146.38 52.11" class="cls-5"/><path d="M145.51,63.55a.74.74,0,0,1-.59-.23l.12-.12a.59.59,0,0,0,.47.19c.25,0,.41-.12.41-.32a.27.27,0,0,0-.09-.21.36.36,0,0,0-.22-.08l-.2,0a.62.62,0,0,1-.31-.13.41.41,0,0,1-.13-.32.48.48,0,0,1,.55-.48A.7.7,0,0,1,146,62l-.12.12a.54.54,0,0,0-.4-.15c-.23,0-.37.13-.37.32a.26.26,0,0,0,.08.2.47.47,0,0,0,.23.09l.2,0a.52.52,0,0,1,.31.12.44.44,0,0,1,.14.34c0,.3-.23.49-.59.49" class="cls-5"/><polygon points="147.65 63.54 147.65 62.23 147.18 63.27 147.03 63.27 146.55 62.23 146.55 63.54 146.37 63.54 146.37 61.82 146.55 61.82 147.11 63.04 147.65 61.82 147.84 61.82 147.84 63.54 147.65 63.54" class="cls-5"/><polygon points="13.91 6.75 17.49 3.4 19.91 5.67 16.34 9.03 13.91 6.75" class="cls-6"/><polygon points="20.97 13.37 24.55 10.02 33.83 18.72 30.25 22.07 20.97 13.37" class="cls-6"/><polygon points="34.88 26.42 38.46 23.06 40.88 25.34 37.3 28.69 34.88 26.42" class="cls-6"/><polygon points="0 19.8 3.58 16.44 6 18.72 2.43 22.07 0 19.8" class="cls-6"/><polygon points="7.06 26.41 10.63 23.06 19.92 31.76 16.34 35.12 7.06 26.41" class="cls-6"/><polygon points="20.97 39.46 24.55 36.11 26.97 38.38 23.39 41.74 20.97 39.46" class="cls-6"/><polygon points="6.96 13.28 10.53 9.92 19.92 18.72 16.34 22.07 6.96 13.28" class="cls-6"/><polygon points="20.97 26.42 24.55 23.06 33.93 31.86 30.35 35.22 20.97 26.42" class="cls-6"/><polygon points="6.96 31.86 9.38 29.59 12.96 32.94 10.53 35.22 6.96 31.86" class="cls-6"/><polygon points="14.01 25.25 23.29 16.54 26.87 19.9 17.59 28.6 14.01 25.25" class="cls-6"/><polygon points="27.92 12.2 30.35 9.92 33.93 13.28 31.5 15.55 27.92 12.2" class="cls-6"/><polygon points="0 25.34 9.38 16.54 12.96 19.9 3.58 28.7 0 25.34" class="cls-6"/><polygon points="14.01 12.2 23.39 3.4 26.97 6.76 17.59 15.55 14.01 12.2" class="cls-6"/><polygon points="13.91 38.39 23.29 29.59 26.87 32.94 17.49 41.74 13.91 38.39" class="cls-6"/><polygon points="27.93 25.25 37.31 16.45 40.88 19.8 31.5 28.6 27.93 25.25" class="cls-6"/></svg>